# xmcd
#
# Track frame offsets:
#	150
#	19941
#	37720
#	53457
#	66157
#	81365
#	98173
#	115851
#	132714
#	150073
#	165990
#	183943
#	202977
#	218495
#	238408
#	257634
#	275211
#
# Disc length: 3864 seconds
#
# Revision: 2
# Processed by: cddbd v1.4b42PL1 Copyright (c) Steve Scherf et al.
# Submitted via: audiograbber 1.80
#
DISCID=df0f1611
DTITLE=Kourkoulis Nikos - Monos Mou
DYEAR=1900
DGENRE=
TTITLE0=Kourkoulis Nikos - Pistepse me
TTITLE1=Kourkoulis Nikos - S' Agapaw Oso Pote
TTITLE2=Kourkoulis Nikos - Kapou Kapou
TTITLE3=Kourkoulis Nikos - Pou se Xanw
TTITLE4=Kourkoulis Nikos - Xathikan ta Xronia
TTITLE5=Kourkoulis Nikos - Monos mou Ponesa
TTITLE6=Kourkoulis Nikos - Ola epitrepontai
TTITLE7=Kourkoulis Nikos - Marianna
TTITLE8=Kourkoulis Nikos - Prepei na Fygw
TTITLE9=Kourkoulis Nikos - Min Anisyxeis
TTITLE10=Kourkoulis Nikos - Fila me Ksana
TTITLE11=Kourkoulis Nikos - Mono i Kardia mou Kserei
TTITLE12=Kourkoulis Nikos - Dipli Zoi
TTITLE13=a - a
TTITLE14=b - b
TTITLE15=c - c
TTITLE16=d - d
EXTD=
EXTT0=
EXTT1=
EXTT2=
EXTT3=
EXTT4=
EXTT5=
EXTT6=
EXTT7=
EXTT8=
EXTT9=
EXTT10=
EXTT11=
EXTT12=
EXTT13=
EXTT14=
EXTT15=
EXTT16=
PLAYORDER=
